<?xml version="1.0" encoding="utf-8"?>
<!-- Generator: Adobe Illustrator 16.0.0, SVG Export Plug-In . SVG Version: 6.00 Build 0)  -->
<!DOCTYPE svg PUBLIC "-//W3C//DTD SVG 1.1//EN" "http://www.w3.org/Graphics/SVG/1.1/DTD/svg11.dtd" [
	<!ENTITY st0 "fill:#E94B4B;">
	<!ENTITY st1 "fill:none;stroke:#FFFFFF;stroke-width:2;stroke-miterlimit:10;">
	<!ENTITY st2 "fill:#FFFFFF;">
	<!ENTITY st3 "fill:#FFFFFF;stroke:#FFFFFF;stroke-miterlimit:10;">
]>
<svg version="1.1" id="Layer_1" xmlns="http://www.w3.org/2000/svg" xmlns:xlink="http://www.w3.org/1999/xlink" x="0px" y="0px"
	 width="792px" height="612px" viewBox="0 0 792 612" style="enable-background:new 0 0 792 612;" xml:space="preserve">
<path style="&st0;" d="M483.338,196.521h-88.763h-82.652l17.507,183.541l15.319,24.509l4.376,59.718c0,0,47.776,33.754,95.006,0
	l3.465-60.368l14.59-23.858L483.338,196.521"/>
<path style="&st2;" d="M486.436,192.994c0,6.467-40.248,15.976-89.9,15.976c-49.647,0-89.899-9.509-89.899-15.976
	s40.252-11.709,89.899-11.709C446.188,181.285,486.436,186.527,486.436,192.994z"/>
<g>
	<path style="&st1;" d="M328.336,379.494c0,9.217,30.503,16.678,68.2,16.678"/>
	<path style="&st1;" d="M462.777,379.609c0,9.22-30.506,16.68-68.202,16.68"/>
</g>
<path style="&st1;" d="M298.257,185.404c0,13.406,44.355,24.251,99.169,24.251"/>
<path style="&st1;" d="M493.743,185.573c0,13.404-44.354,24.25-99.168,24.25"/>
<path style="&st0;" d="M483.98,191.939c0,6.45-38.361,15.935-85.691,15.935c-47.326,0-85.692-9.485-85.692-15.935
	c0-6.453,38.366-11.682,85.692-11.682C445.619,180.257,483.98,185.487,483.98,191.939z"/>
<path style="&st2;" d="M423.277,192.776c0,1.29-4.407,2.335-9.836,2.335c-5.436,0-9.84-1.045-9.84-2.335s4.404-2.333,9.84-2.333
	C418.87,190.443,423.277,191.486,423.277,192.776z"/>
<path style="&st0;" d="M404.928,191.13l13.185-50.909l46.151-48.562l11.465,8.616l-41.273,45.688l-12.897,45.166
	c0,0-6.597,6.53-17.775,0"/>
<g>
	<path style="&st3;" d="M360.776,297.618c-0.112,0.166-0.315,0.688-0.609,1.567c-0.294,0.88-0.651,1.983-1.072,3.311
		c-0.42,1.327-0.876,2.812-1.366,4.454c-0.49,1.643-0.995,3.318-1.513,5.027c-0.519,1.71-1.016,3.385-1.492,5.027
		c-0.477,1.643-0.904,3.127-1.282,4.455c-0.378,1.326-0.693,2.438-0.946,3.335c-0.252,0.896-0.406,1.426-0.462,1.593
		c-0.141,0.53-0.365,1.119-0.672,1.767c-0.309,0.646-0.672,1.261-1.093,1.842c-0.42,0.58-0.882,1.062-1.387,1.443
		c-0.504,0.381-1.023,0.572-1.555,0.572c-0.897,0-1.548-0.299-1.954-0.896c-0.407-0.598-0.609-1.692-0.609-3.285
		c0-0.233,0-0.466,0-0.697c0-0.232,0.014-0.481,0.042-0.746c0.027-0.531,0.238-1.527,0.63-2.987c0.392-1.46,0.861-3.11,1.408-4.952
		s1.135-3.749,1.765-5.724s1.197-3.741,1.702-5.302c-1.485,1.66-3.096,3.311-4.833,4.953c-1.737,1.643-3.516,3.119-5.337,4.43
		c-1.821,1.312-3.656,2.382-5.505,3.211c-1.849,0.828-3.628,1.244-5.337,1.244c-1.961,0-3.649-0.432-5.064-1.294
		c-1.415-0.863-2.584-1.991-3.509-3.385c-0.924-1.394-1.611-2.97-2.059-4.729c-0.448-1.759-0.672-3.518-0.672-5.276
		c0-0.231,0-0.448,0-0.647c0-0.198,0.014-0.397,0.042-0.597c0.168-3.186,0.623-6.454,1.366-9.806
		c0.742-3.352,1.716-6.687,2.921-10.005c1.204-3.317,2.598-6.562,4.181-9.73c1.583-3.168,3.305-6.164,5.168-8.984
		c1.863-2.82,3.845-5.417,5.946-7.79c2.101-2.372,4.258-4.413,6.472-6.122c2.213-1.708,4.447-3.044,6.703-4.007
		c2.255-0.962,4.489-1.443,6.703-1.443c2.549,0,5.015,0.697,7.396,2.09c2.381,1.394,4.608,3.651,6.682,6.77
		c0.476,0.697,0.777,1.402,0.903,2.115c0.126,0.714,0.189,1.386,0.189,2.016c0,1.493-0.357,2.672-1.071,3.534
		c-0.714,0.863-1.562,1.294-2.542,1.294c-0.897,0-1.73-0.473-2.5-1.418s-1.632-2.297-2.584-4.057
		c-0.896-1.593-1.884-2.745-2.962-3.459c-1.079-0.713-2.248-1.07-3.509-1.07c-1.961,0-4.055,0.813-6.282,2.439
		c-2.228,1.626-4.434,3.775-6.619,6.446c-2.186,2.671-4.28,5.724-6.283,9.158s-3.775,6.952-5.316,10.552
		c-1.541,3.601-2.767,7.151-3.677,10.651c-0.911,3.501-1.366,6.645-1.366,9.433c0,0.929,0.063,1.884,0.189,2.861
		c0.126,0.979,0.364,1.867,0.714,2.663c0.35,0.797,0.826,1.452,1.429,1.966c0.603,0.516,1.366,0.771,2.291,0.771
		c1.036,0,2.213-0.348,3.53-1.045c1.316-0.696,2.682-1.609,4.097-2.737c1.415-1.128,2.836-2.405,4.266-3.833
		c1.429-1.426,2.759-2.869,3.992-4.33c1.232-1.46,2.325-2.862,3.278-4.206c0.952-1.344,1.667-2.514,2.143-3.509l3.908-11.697
		c0.476-1.26,1.099-2.156,1.87-2.688c0.77-0.53,1.562-0.796,2.375-0.796c0.392,0,0.784,0.067,1.176,0.199
		c0.392,0.133,0.742,0.34,1.051,0.622c0.308,0.282,0.553,0.647,0.735,1.095c0.182,0.448,0.273,0.971,0.273,1.567
		c0,1.593-0.14,3.086-0.42,4.479c-0.28,1.395-0.638,2.755-1.072,4.082c-0.435,1.327-0.918,2.663-1.45,4.007
		C361.798,294.756,361.28,296.158,360.776,297.618z"/>
	<path style="&st3;" d="M413.767,307.374c-1.233,1.659-2.669,3.276-4.308,4.853s-3.327,2.979-5.063,4.206
		c-1.737,1.228-3.446,2.215-5.127,2.961c-1.681,0.747-3.193,1.12-4.538,1.12s-2.438-0.448-3.278-1.344s-1.261-2.422-1.261-4.579
		c0-1.526,0.224-3.302,0.672-5.326c-0.729,1.295-1.639,2.605-2.731,3.933s-2.339,2.538-3.74,3.634
		c-1.401,1.095-2.97,1.982-4.707,2.662c-1.737,0.68-3.628,1.021-5.673,1.021c-0.924,0-1.814-0.116-2.668-0.349
		c-0.855-0.232-1.604-0.63-2.248-1.194c-0.645-0.563-1.163-1.318-1.555-2.265c-0.393-0.945-0.588-2.132-0.588-3.559
		c0-0.033,0.056-0.539,0.168-1.519c0.111-0.979,0.469-2.521,1.071-4.629c0.602-2.106,1.534-4.836,2.794-8.188
		c1.261-3.352,3.04-7.416,5.337-12.194c0.588-1.261,1.268-2.165,2.038-2.713s1.604-0.821,2.5-0.821c0.392,0,0.798,0.059,1.219,0.174
		c0.42,0.117,0.812,0.299,1.177,0.548c0.364,0.249,0.658,0.564,0.882,0.945c0.224,0.382,0.336,0.821,0.336,1.319
		c0,0.332-0.042,0.647-0.126,0.945c-0.14,0.565-0.441,1.303-0.903,2.215c-0.462,0.913-1.002,1.959-1.618,3.137
		c-0.617,1.178-1.268,2.447-1.954,3.808c-0.687,1.36-1.324,2.771-1.912,4.23c-0.588,1.461-1.093,2.945-1.513,4.455
		c-0.42,1.51-0.659,2.979-0.714,4.404c0,0.598,0.14,1.146,0.42,1.643c0.28,0.498,0.742,0.747,1.387,0.747
		c1.821,0,3.558-0.598,5.211-1.792c1.653-1.194,3.179-2.68,4.581-4.455c1.4-1.774,2.668-3.683,3.803-5.724
		c1.135-2.041,2.081-3.907,2.837-5.6c0.532-1.128,1.001-2.34,1.408-3.634c0.406-1.294,0.847-2.488,1.324-3.584
		c0.476-1.095,1.022-2.007,1.638-2.737c0.616-0.729,1.387-1.095,2.312-1.095c1.009,0,1.807,0.382,2.396,1.145
		c0.588,0.764,0.882,1.676,0.882,2.737c0,0.598-0.188,1.419-0.566,2.464c-0.379,1.046-0.855,2.24-1.43,3.584
		s-1.197,2.779-1.869,4.306c-0.673,1.526-1.297,3.078-1.87,4.653c-0.575,1.577-1.051,3.12-1.429,4.63
		c-0.378,1.51-0.567,2.911-0.567,4.205c0,1.195,0.616,1.792,1.849,1.792c0.868,0,1.947-0.299,3.235-0.896
		c1.289-0.598,2.641-1.436,4.056-2.514c1.414-1.078,2.829-2.348,4.244-3.808c1.414-1.46,2.669-3.036,3.761-4.729L413.767,307.374z"
		/>
	<path style="&st3;" d="M415.069,304.885c-0.309,0.764-0.609,1.651-0.903,2.663c-0.295,1.013-0.441,1.916-0.441,2.713
		c0,0.497,0.084,0.896,0.252,1.194s0.49,0.448,0.967,0.448c0.588,0,1.323-0.207,2.206-0.622c0.882-0.415,1.834-0.963,2.857-1.643
		c1.022-0.68,2.087-1.46,3.193-2.34c1.106-0.879,2.206-1.792,3.299-2.737c1.093-0.946,2.136-1.892,3.131-2.837
		c0.994-0.946,1.884-1.817,2.669-2.613c0.224-0.232,0.489-0.398,0.798-0.498c0.308-0.1,0.574-0.149,0.799-0.149
		c0.56,0,1.022,0.232,1.387,0.697c0.363,0.465,0.546,1.078,0.546,1.842c0,0.696-0.196,1.477-0.588,2.339
		c-0.393,0.863-1.079,1.71-2.06,2.538c-1.793,1.959-3.6,3.816-5.421,5.575s-3.635,3.31-5.441,4.653
		c-1.808,1.345-3.601,2.414-5.379,3.211c-1.779,0.796-3.509,1.194-5.19,1.194c-1.148,0-2.108-0.183-2.878-0.547
		c-0.771-0.366-1.387-0.863-1.85-1.493c-0.462-0.631-0.792-1.377-0.987-2.24c-0.196-0.862-0.294-1.774-0.294-2.737
		c0-1.626,0.203-3.293,0.609-5.003c0.405-1.708,0.889-3.276,1.449-4.703c0.98-2.589,1.976-5.159,2.984-7.715
		c1.008-2.555,1.933-4.895,2.773-7.019l12.732-32.104c0.504-1.294,1.184-2.207,2.038-2.738c0.854-0.53,1.716-0.796,2.585-0.796
		c0.867,0,1.659,0.282,2.374,0.846c0.714,0.565,1.071,1.477,1.071,2.738c0,0.597-0.119,1.228-0.357,1.891
		c-0.238,0.665-0.539,1.377-0.903,2.141c-0.7,1.56-1.533,3.468-2.5,5.724c-0.967,2.257-2.004,4.712-3.11,7.367
		c-1.106,2.655-2.241,5.417-3.403,8.288c-1.163,2.87-2.298,5.666-3.404,8.387c-1.106,2.722-2.143,5.301-3.109,7.74
		C416.603,300.978,415.77,303.093,415.069,304.885z"/>
	<path style="&st3;" d="M474.615,295.876c0.393-0.266,0.757-0.48,1.093-0.647c0.336-0.165,0.658-0.249,0.967-0.249
		c0.615,0,1.078,0.274,1.387,0.821c0.308,0.548,0.462,1.22,0.462,2.017c0,0.863-0.188,1.741-0.567,2.638
		c-0.378,0.896-0.945,1.643-1.702,2.239c-2.998,2.655-5.673,5.077-8.025,7.268c-2.354,2.189-4.574,4.073-6.661,5.649
		s-4.125,2.796-6.114,3.658s-4.118,1.294-6.388,1.294c-2.129,0-3.775-0.465-4.938-1.394c-1.163-0.929-1.744-2.206-1.744-3.833
		c0-0.132,0-0.256,0-0.373c0-0.115,0.014-0.257,0.042-0.423c0.111-0.995,0.547-2.141,1.303-3.435
		c0.757-1.294,1.667-2.638,2.731-4.031s2.199-2.804,3.404-4.231c1.204-1.426,2.317-2.778,3.341-4.057
		c1.022-1.276,1.87-2.446,2.542-3.509c0.673-1.062,1.009-1.924,1.009-2.588c0-0.398-0.141-0.713-0.42-0.946
		c-0.28-0.231-0.743-0.348-1.387-0.348c-1.121,0-2.276,0.29-3.467,0.871c-1.191,0.58-2.368,1.36-3.53,2.339
		c-1.163,0.979-2.298,2.1-3.404,3.359c-1.106,1.262-2.143,2.572-3.109,3.933c-0.967,1.361-1.849,2.729-2.647,4.106
		s-1.479,2.646-2.038,3.808c-0.168,0.365-0.406,0.88-0.715,1.543c-0.309,0.664-0.645,1.411-1.008,2.24
		c-0.365,0.829-0.75,1.685-1.156,2.562c-0.406,0.88-0.777,1.71-1.113,2.489s-0.638,1.476-0.903,2.091
		c-0.267,0.613-0.456,1.036-0.567,1.269c-0.141,0.299-0.372,0.862-0.693,1.692c-0.322,0.829-0.693,1.8-1.114,2.912
		c-0.42,1.111-0.861,2.281-1.323,3.509s-0.896,2.39-1.303,3.484s-0.764,2.057-1.071,2.887c-0.309,0.829-0.505,1.394-0.589,1.692
		c-0.279,0.862-0.609,1.675-0.987,2.439c-0.378,0.763-0.812,1.435-1.303,2.016c-0.489,0.58-1.051,1.045-1.681,1.394
		c-0.631,0.349-1.338,0.522-2.122,0.522c-1.009,0-1.842-0.241-2.501-0.722c-0.657-0.481-0.987-1.402-0.987-2.763
		c0-0.664,0.084-1.344,0.252-2.04c0.169-0.697,0.379-1.387,0.631-2.066c0.252-0.681,0.512-1.344,0.777-1.99
		c0.267-0.647,0.512-1.27,0.735-1.867c1.513-3.318,3.054-6.645,4.622-9.979c1.569-3.335,3.075-6.636,4.518-9.905
		c1.442-3.268,2.78-6.479,4.014-9.631c1.232-3.152,2.255-6.172,3.067-9.059c0.224-0.598,0.532-1.443,0.925-2.539
		c0.392-1.095,0.84-2.173,1.345-3.235c0.504-1.062,1.071-1.982,1.701-2.762c0.631-0.779,1.31-1.17,2.038-1.17
		c1.121,0,1.934,0.257,2.438,0.771c0.505,0.515,0.757,1.269,0.757,2.265c0,0.199-0.028,0.515-0.084,0.945
		c-0.057,0.432-0.126,0.889-0.21,1.369c-0.084,0.481-0.176,0.938-0.273,1.369c-0.099,0.432-0.189,0.746-0.273,0.945
		c1.036-1.128,2.157-2.248,3.362-3.359c1.204-1.111,2.451-2.116,3.74-3.012c1.288-0.896,2.605-1.625,3.95-2.19
		c1.345-0.563,2.689-0.846,4.034-0.846c0.924,0,1.842,0.133,2.752,0.398s1.724,0.655,2.438,1.169
		c0.715,0.516,1.296,1.162,1.744,1.941c0.447,0.78,0.672,1.685,0.672,2.713c0,1.361-0.343,2.812-1.029,4.355
		s-1.548,3.094-2.584,4.653c-1.037,1.561-2.158,3.078-3.362,4.555c-1.205,1.477-2.332,2.82-3.383,4.031
		c-1.051,1.212-1.933,2.24-2.647,3.086c-0.714,0.847-1.086,1.419-1.113,1.718c0,0.398,0.126,0.722,0.378,0.971
		s0.673,0.373,1.261,0.373c0.477,0,1.177-0.266,2.102-0.797c0.924-0.53,2.22-1.451,3.887-2.762c1.666-1.311,3.782-3.069,6.346-5.276
		C467.703,302.007,470.861,299.228,474.615,295.876z"/>
</g>
</svg>
