<?xml version="1.0" encoding="utf-8"?>
<!-- Generator: Adobe Illustrator 14.0.0, SVG Export Plug-In . SVG Version: 6.00 Build 43363)  -->
<!DOCTYPE svg PUBLIC "-//W3C//DTD SVG 1.1//EN" "http://www.w3.org/Graphics/SVG/1.1/DTD/svg11.dtd">
<svg version="1.1"
	 id="gulp" xmlns:cc="http://creativecommons.org/ns#" xmlns:svg="http://www.w3.org/2000/svg" xmlns:rdf="http://www.w3.org/1999/02/22-rdf-syntax-ns#" xmlns:dc="http://purl.org/dc/elements/1.1/"
	 xmlns="http://www.w3.org/2000/svg" xmlns:xlink="http://www.w3.org/1999/xlink" x="0px" y="0px" width="512px" height="512px"
	 viewBox="0 0 512 512" enable-background="new 0 0 512 512" xml:space="preserve">
<g>
	<g id="cup">
		<path id="unshadowed-cup" fill="#D83161" d="M367.995,222.002c-0.493,0.493-1.007,0.981-1.521,1.468
			c-21.178,20.086-60.337,35.05-105.939,37.959c-0.124,0.008-0.245,0.019-0.368,0.025c-0.072,0.005-0.144,0.007-0.216,0.011
			c-16.182,0.996-32.601,0.552-48.665-1.87l-8.711,208.911l8.289,11.19c13.846,8.53,32.733,13.804,53.057,13.804
			c40.82,0,73.737-18.13,73.737-44.352c0-1.793,28.496-213.01,28.496-213.01l1.986-14.289
			C368.091,221.899,368.045,221.951,367.995,222.002z"/>
		<path id="shadow-cup" fill="#BC3F63" d="M211.265,259.513c-2.969-0.443-5.872-0.96-8.733-1.519
			c-0.676-0.132-1.363-0.253-2.033-0.391c-0.732-0.15-1.445-0.32-2.169-0.479c-1.022-0.225-2.052-0.44-3.058-0.679
			c-0.494-0.117-0.972-0.248-1.462-0.368c-1.216-0.299-2.435-0.597-3.627-0.917c-0.333-0.09-0.655-0.188-0.987-0.28
			c-1.332-0.366-2.658-0.736-3.957-1.13c-0.216-0.064-0.424-0.137-0.639-0.202c-1.399-0.43-2.786-0.867-4.146-1.326
			c-0.15-0.051-0.295-0.106-0.445-0.157c-1.409-0.481-2.801-0.973-4.164-1.484c-0.145-0.055-0.284-0.113-0.429-0.169
			c-1.355-0.514-2.693-1.038-4.001-1.582c-1.182-0.491-2.342-0.996-3.484-1.512c-0.371-0.167-0.737-0.338-1.104-0.509
			c-0.91-0.422-1.806-0.851-2.688-1.288c-0.36-0.177-0.721-0.354-1.076-0.534c-1.109-0.563-2.199-1.136-3.263-1.723
			c-0.119-0.066-0.239-0.132-0.358-0.197c-1.078-0.602-2.126-1.217-3.155-1.841c-0.22-0.134-0.439-0.267-0.657-0.4
			c-1.037-0.641-2.051-1.292-3.036-1.957c-0.175-0.119-0.346-0.239-0.519-0.359c-0.872-0.598-1.723-1.206-2.552-1.823
			c-0.168-0.123-0.337-0.245-0.502-0.37c-0.901-0.682-1.771-1.375-2.618-2.078c-0.208-0.173-0.412-0.346-0.616-0.519
			c-0.86-0.73-1.703-1.468-2.504-2.221l0,0.003c-0.006-0.006-0.012-0.012-0.019-0.018l0.922,4.436l1.843,8.873
			c0.009,0.007,0.019,0.014,0.028,0.021l0.001,0.003l0,0l42.007,201.531c2.047,13.331,8.954,24.818,22.796,33.348l0.399-208.216
			v-0.003c0.001,0,0.001,0,0.001,0v-0.625v-11.261c0.007,0.002,0.015,0.002,0.021,0.003v-0.077
			C211.279,259.516,211.272,259.515,211.265,259.513z"/>
	</g>
	<g id="lettering">
		<path id="g" fill="#B3B6B6" d="M209.991,322.285c-1.182-1.323-3.12-2.25-5.806-2.84c-5.131-1.125-9.515-0.146-13.138,2.704
			c-3.625,2.857-6.385,6.699-8.294,11.608c-0.867,2.235-1.503,4.521-1.914,6.892c-0.414,2.37-0.617,4.812-0.617,7.355
			c0,2.543,0.336,4.979,0.998,7.347c1.854,6.544,5.428,11.595,10.907,14.502c4.097,2.155,7.794,1.991,11.076-0.64
			c-0.401,1.764-0.802,3.515-1.201,5.258c-10.09-0.644-14.882,1.033-14.93,7.223c-0.019,3.555,0.923,6.797,2.848,9.744
			c1.926,2.936,4.504,5.502,7.785,7.488c3.283,1.985,6.253,2.49,8.886,1.492c1.745-0.659,3.226-2.004,4.435-3.991l0.139-72.381
			C210.881,323.431,210.489,322.843,209.991,322.285z M200.413,382.345c-0.637,2.974-1.457,4.968-2.454,5.976
			c-0.997,1.006-1.863,1.274-2.598,0.843c-0.737-0.433-1.295-0.871-1.674-1.306c-1.137-1.372-1.695-2.755-1.684-4.139
			c0.035-3.471,2.961-4.598,8.985-4.229C200.797,380.444,200.604,381.396,200.413,382.345z M205.685,356.922
			c-0.642,2.405-1.716,4.104-3.214,5.059s-3.101,1.041-4.807,0.294c-0.958-0.418-1.762-1.16-2.408-2.211
			c-1.121-1.746-1.664-4.161-1.635-7.261c0.016-1.602,0.103-3.087,0.267-4.462c1.074-8.977,3.601-15.386,7.616-19.519
			c1.667-1.711,3.495-2.358,5.483-1.891c0.762,0.181,1.39,0.49,1.874,0.928c1.306,1.064,1.95,2.439,1.929,4.12
			C209.079,340.455,207.375,348.776,205.685,356.922z"/>
		<path id="ulp" fill="#EFF3F3" d="M343.407,321.853c-1.616-4.867-5.111-6.714-10.475-5.385c-4.151,1.034-7.771,3.392-10.841,7.264
			c0.47-2.849,0.94-5.68,1.412-8.495c-4.499,0.961-9.017,1.855-13.549,2.653c-2.211,13.952-4.43,28.188-6.668,42.615
			c-0.008,0.002-0.016,0.004-0.023,0.007c-0.646,3.077-1.757,5.814-3.336,8.199c-1.581,2.381-3.309,3.806-5.189,4.228
			c-2.601,0.582-3.919-0.513-3.944-3.181c-0.015-1.393,0.097-2.826,0.334-4.307c3.475-22.068,6.874-43.855,10.235-65.127
			c-4.652,1.256-9.316,2.467-13.99,3.608c-3.205,20.185-6.471,40.634-9.817,61.156c-0.002,0.007-0.002,0.012-0.003,0.019
			c-1.57,7.263-4.188,11.099-7.843,11.291c-2.673,0.134-4.011-1.238-4.015-4.007c-0.001-1.464,0.14-2.896,0.423-4.288
			c2.313-13.838,4.586-27.707,6.824-41.552c-4.603,0.209-9.21,0.283-13.816,0.225c-2.186,12.979-4.4,25.915-6.65,38.757
			c-1.798,7.04-4.421,10.401-7.844,9.985c-1.933-0.241-2.885-2.031-2.859-5.314c0.008-1.019,0.112-2.14,0.31-3.369
			c2.418-13.322,4.809-26.809,7.167-40.398c-4.602-0.255-9.194-0.64-13.777-1.153c-2.278,12.498-4.574,24.833-6.882,36.96l0,0
			c-0.001,0-0.001,0-0.002,0c-1.431,4.883-3.104,8.276-5.015,10.178c-1.912,1.902-4.317,2.986-7.201,3.183
			c3.356-16.635,6.729-33.844,10.078-51.486c-4.564-0.669-9.113-1.453-13.639-2.337c-0.363,1.882-0.727,3.755-1.089,5.624
			c0.002-0.219,0.005-0.44,0.008-0.661c0.012-0.946-0.175-1.847-0.563-2.688l-0.046,72.217c1.227-2.075,2.166-4.834,2.812-8.243
			c0.511-2.551,1.025-5.113,1.537-7.693c1.456,0.067,2.977-0.079,4.569-0.445c3.115-0.722,5.769-2.724,7.958-5.914
			c0.386,2.953,1.245,5.381,2.603,7.251c1.985,2.698,4.431,4.371,7.343,4.903c5.793,1.066,10.652-2.228,14.494-9.637
			c0.604,7.688,3.831,11.836,9.684,11.86c6.159-0.003,11.164-3.938,14.988-11.353c0.422,3.039,1.348,5.311,2.794,6.76
			c2.046,2.015,4.358,2.792,6.92,2.317c5.782-1.095,10.499-4.902,14.2-10.962c-1.946,12.568-3.909,25.264-5.899,38.054
			c4.864-2.881,9.675-6.042,14.419-9.434c1.513-9.948,3.019-19.795,4.519-29.52c1.378,2.158,3.815,2.521,7.268,0.983
			c3.452-1.538,6.291-3.533,8.548-5.828c2.257-2.296,4.192-4.849,5.826-7.604c1.631-2.757,2.985-5.614,4.073-8.566
			c1.091-2.948,1.967-5.859,2.637-8.746c0.669-2.886,1.146-5.648,1.427-8.317c0.279-2.664,0.419-5.26,0.419-7.805
			C344.259,325.792,343.977,323.642,343.407,321.853z M331.113,341.679c-0.862,7.549-2.863,13.996-6.03,19.34
			c-1.629,2.723-3.49,4.543-5.596,5.375c-2.107,0.831-3.453,0.47-4.022-1.041c1.711-11.078,3.418-21.983,5.132-32.688
			c0.862-2.057,1.874-3.673,3.032-4.865c1.16-1.191,2.271-1.923,3.333-2.212c3.123-0.836,4.701,1.594,4.753,7.346
			C331.737,335.407,331.537,338.313,331.113,341.679z"/>
	</g>
	<g id="lid">
		<path fill="#F4F4F4" d="M383.249,187.738c0-0.001,0-0.002,0-0.003c-2.013-31.791-47.312-55.6-105.686-58.121l0.002,0.001
			c-0.001,0-0.001,0-0.002,0c-8.34-0.359-16.945-0.286-25.73,0.262c-70.279,4.379-125.384,37.382-123.083,73.717
			c0.651,10.282,5.831,19.729,14.515,27.891l-1.184-5.7l1.184,5.699c0.006,0.005,0.012,0.011,0.018,0.016
			c0.014,0.014,0.029,0.025,0.043,0.039c0.049,0.045,0.101,0.09,0.15,0.135c0.723,0.675,1.477,1.337,2.247,1.993
			c0.244,0.208,0.488,0.415,0.736,0.621c0.816,0.675,1.654,1.344,2.519,1.999c0.212,0.161,0.433,0.317,0.647,0.478
			c0.77,0.57,1.558,1.133,2.365,1.688c0.222,0.153,0.439,0.309,0.664,0.46c0.943,0.636,1.914,1.258,2.904,1.872
			c0.275,0.17,0.554,0.338,0.833,0.507c0.978,0.592,1.971,1.175,2.993,1.745c0.066,0.036,0.128,0.074,0.194,0.111
			c0.009,0.005,0.02,0.01,0.029,0.016c0.104,0.058,0.214,0.113,0.318,0.171c1.003,0.552,2.03,1.092,3.073,1.623
			c0.417,0.212,0.841,0.419,1.264,0.628c0.805,0.397,1.621,0.788,2.448,1.172c0.434,0.201,0.866,0.404,1.305,0.603
			c1.099,0.495,2.214,0.979,3.349,1.452c0.126,0.053,0.248,0.107,0.374,0.16c0.026,0.012,0.055,0.021,0.083,0.032
			c1.415,0.583,2.855,1.149,4.325,1.696c0.175,0.065,0.36,0.125,0.537,0.189c1.327,0.489,2.667,0.969,4.036,1.428
			c0.439,0.146,0.896,0.281,1.338,0.425c1.124,0.365,2.246,0.733,3.396,1.078c0.476,0.144,0.97,0.272,1.45,0.411
			c1.138,0.331,2.272,0.664,3.434,0.975c0.976,0.261,1.976,0.5,2.968,0.747c0.689,0.171,1.365,0.354,2.063,0.518
			c1.037,0.245,2.098,0.467,3.152,0.697c0.675,0.146,1.337,0.305,2.019,0.445c1.341,0.277,2.707,0.529,4.074,0.78
			c0.411,0.075,0.812,0.162,1.226,0.234c0.166,0.03,0.337,0.054,0.504,0.083c1.631,0.289,3.278,0.56,4.945,0.809
			c0.037,0.006,0.075,0.01,0.112,0.016l-0.014,0.028c0.788,0.102,1.596,0.199,2.415,0.296c0.584,0.077,1.163,0.161,1.749,0.236
			l0.017-0.038c12.35,1.363,27.684,2.137,41.021,1.579c1.191-0.058,2.381-0.106,3.58-0.182c11.717-0.729,23.013-2.256,33.689-4.46
			c2.669-0.551,5.3-1.145,7.89-1.778c3.882-0.951,7.673-1.994,11.358-3.122c23.343-7.141,42.514-17.694,54.891-30.092
			c0.05-0.051,0.096-0.103,0.146-0.152C378.457,211.458,384.013,199.782,383.249,187.738z"/>
		<path fill="#D3D7DA" d="M247.939,181.135c-0.188-0.109-0.356-0.226-0.475-0.354c-0.059-0.063-0.132-0.155-0.202-0.241
			c-1.154-1.12-1.883-2.412-2.051-3.802c-0.047-0.225-0.071-0.436-0.052-0.615c0-2.321,1.564-4.422,4.094-5.942
			c-2.302-9.124-5.876-23.271-9.913-39.205c-64.198,7.262-112.753,38.468-110.589,72.619c0.651,10.282,5.831,19.728,14.515,27.89
			c0.006,0.005,0.012,0.011,0.018,0.016c0.014,0.014,0.029,0.025,0.043,0.039c0.049,0.045,0.101,0.09,0.15,0.135
			c0.723,0.675,1.477,1.337,2.247,1.993c0.244,0.208,0.488,0.415,0.736,0.621c0.816,0.675,1.654,1.344,2.519,1.999
			c0.212,0.161,0.433,0.317,0.647,0.478c0.77,0.57,1.558,1.133,2.365,1.688c0.222,0.153,0.439,0.309,0.664,0.46
			c0.943,0.636,1.914,1.258,2.904,1.872c0.275,0.17,0.554,0.338,0.833,0.507c0.978,0.592,1.971,1.175,2.993,1.745
			c0.066,0.036,0.128,0.074,0.194,0.111c0.009,0.005,0.02,0.01,0.029,0.016c0.104,0.058,0.214,0.113,0.318,0.171
			c1.003,0.552,2.03,1.092,3.073,1.623c0.417,0.212,0.841,0.419,1.264,0.628c0.805,0.397,1.621,0.788,2.448,1.172
			c0.434,0.201,0.866,0.404,1.305,0.603c1.099,0.495,2.214,0.979,3.349,1.452c0.126,0.053,0.248,0.107,0.374,0.16
			c0.026,0.012,0.055,0.021,0.083,0.032c1.415,0.583,2.855,1.149,4.325,1.696c0.175,0.065,0.36,0.125,0.537,0.189
			c1.327,0.489,2.667,0.969,4.036,1.428c0.439,0.146,0.896,0.281,1.338,0.425c1.124,0.365,2.246,0.733,3.396,1.078
			c0.476,0.144,0.97,0.272,1.45,0.411c1.138,0.331,2.272,0.664,3.434,0.975c0.976,0.261,1.976,0.5,2.968,0.747
			c0.689,0.171,1.365,0.354,2.063,0.518c1.037,0.245,2.098,0.467,3.152,0.697c0.675,0.146,1.337,0.305,2.019,0.445
			c1.341,0.277,2.707,0.529,4.074,0.78c0.411,0.075,0.812,0.162,1.226,0.234c1.789,0.317,3.598,0.613,5.426,0.886
			c0.007,0.002,0.015,0.003,0.021,0.005h0.001l22.093-43.305l17.094-33.505C249.517,182.253,248.667,181.724,247.939,181.135z"/>
		<path fill="#D3D7DA" d="M277.563,129.614c-7.058-0.305-14.313-0.278-21.696,0.062c2.661,10.557,5.117,20.311,7.158,28.431
			L277.563,129.614z"/>
		<path id="straw-hole" fill="#4D4D4D" d="M259.138,167.717c-3.86,0-7.355,0.941-9.884,2.463c-2.529,1.521-4.094,3.621-4.094,5.942
			c0,0.208,0.027,0.412,0.052,0.615c0.168,1.39,0.896,2.682,2.051,3.802c0.213,0.205,0.438,0.404,0.677,0.596
			c0.729,0.589,1.578,1.118,2.535,1.573c2.382,1.135,5.388,1.817,8.664,1.817c0.724,0,1.431-0.043,2.125-0.107
			c6.708-0.616,11.853-4.09,11.853-8.296C273.115,171.48,266.856,167.717,259.138,167.717z"/>
	</g>
	<g id="straw">
		<path opacity="0.67" fill="#DDDFE2" d="M267.139,174.454c-1.007-3.996-2.419-9.61-4.113-16.347l-11.103,21.76l0.274-0.094
			c1.695,1.056,4.324,1.736,7.285,1.736c5.114,0,9.258-2.022,9.258-4.518C268.742,176.052,268.148,175.178,267.139,174.454z"/>
		<path opacity="0.67" fill="#DDDFE2" d="M255.868,129.679c-7.296-28.927-16.14-63.832-22.265-87.371
			c-0.036-0.137-0.09-0.296-0.15-0.432c-0.014-0.027-0.034-0.068-0.05-0.096c-0.425-0.802-1.385-1.633-2.75-2.448
			C217.55,29.335,151.588,18.5,151.588,18.5l0.001,0.001c0,0-2.018,4.897-2.3,7.489c-0.309,2.821,0.701,8.495,0.701,8.495
			s0.707,0.139,0.75,0.145c0,0.002,0,0.047,0,0.048c0.278,0.024,0.663,0.071,0.951,0.097c3.799,0.595,39.037,6.168,57.209,11.76
			c-0.203-0.052-0.396-0.093-0.6-0.144c1.639,0.48,3.149,0.964,4.5,1.439c0.39,0.144,0.791,0.29,1.149,0.432
			c0.249,0.093,0.517,0.194,0.751,0.289c0.303,0.128,0.625,0.257,0.9,0.384c2.008,0.927,3.231,1.849,3.45,2.687
			c5.601,21.536,13.587,52.909,20.291,79.354c4.104-0.465,8.271-0.835,12.493-1.098
			C253.186,129.792,254.524,129.739,255.868,129.679z"/>
		<path opacity="0.67" fill="#D1D4D7" d="M255.868,129.679c-1.344,0.061-2.682,0.113-4.034,0.197
			c-4.223,0.264-8.389,0.633-12.493,1.096c1.886,7.441,3.737,14.891,5.649,22.326c1.47,5.719,2.817,11.47,4.313,17.182
			c0.284,1.09,0.668,2.161,0.895,3.265c0.132,0.643,0.203,1.294,0.254,1.946c0.047,0.625-0.189,1.972,0.109,2.503
			c0.302,0.535,0.939,1.108,1.38,1.526c1.566-2.663,2.851-5.489,4.256-8.23c1.88-3.669,3.748-7.344,5.623-11.016
			c0.192-0.377,1.319-1.915,1.206-2.365C260.982,149.988,258.528,140.233,255.868,129.679z"/>
	</g>
</g>
</svg>
