<?xml version="1.0" encoding="UTF-8" standalone="no"?>
<svg
   xmlns:osb="http://www.openswatchbook.org/uri/2009/osb"
   xmlns:dc="http://purl.org/dc/elements/1.1/"
   xmlns:cc="http://creativecommons.org/ns#"
   xmlns:rdf="http://www.w3.org/1999/02/22-rdf-syntax-ns#"
   xmlns:svg="http://www.w3.org/2000/svg"
   xmlns="http://www.w3.org/2000/svg"
   xmlns:sodipodi="http://sodipodi.sourceforge.net/DTD/sodipodi-0.dtd"
   xmlns:inkscape="http://www.inkscape.org/namespaces/inkscape"
   width="512"
   height="512"
   viewBox="0 0 135.46666 135.46667"
   version="1.1"
   id="svg8"
   inkscape:version="1.0.1 (3bc2e813f5, 2020-09-07)"
   sodipodi:docname="gulp.svg">
  <title
     id="title3717">Gulp Community</title>
  <defs
     id="defs2">
    <linearGradient
       id="linearGradient987"
       osb:paint="gradient">
      <stop
         style="stop-color:#000000;stop-opacity:1;"
         offset="0"
         id="stop983" />
      <stop
         style="stop-color:#000000;stop-opacity:0;"
         offset="1"
         id="stop985" />
    </linearGradient>
  </defs>
  <sodipodi:namedview
     id="base"
     pagecolor="#ffffff"
     bordercolor="#666666"
     borderopacity="1.0"
     inkscape:pageopacity="0.0"
     inkscape:pageshadow="2"
     inkscape:zoom="1"
     inkscape:cx="439.54774"
     inkscape:cy="224.06678"
     inkscape:document-units="mm"
     inkscape:current-layer="g1041"
     showgrid="true"
     units="px"
     inkscape:pagecheckerboard="false"
     inkscape:snap-bbox="false"
     inkscape:object-paths="true"
     inkscape:snap-intersection-paths="true"
     inkscape:snap-smooth-nodes="true"
     inkscape:object-nodes="false"
     inkscape:snap-nodes="false"
     inkscape:snap-others="false"
     inkscape:snap-global="true"
     inkscape:bbox-nodes="false"
     inkscape:snap-bbox-edge-midpoints="true"
     inkscape:snap-bbox-midpoints="true"
     inkscape:snap-page="false"
     inkscape:snap-object-midpoints="true"
     inkscape:snap-center="true"
     inkscape:document-rotation="0"
     inkscape:window-width="1920"
     inkscape:window-height="1020"
     inkscape:window-x="0"
     inkscape:window-y="0"
     inkscape:window-maximized="1" />
  <metadata
     id="metadata5">
    <rdf:RDF>
      <cc:Work
         rdf:about="">
        <dc:format>image/svg+xml</dc:format>
        <dc:type
           rdf:resource="http://purl.org/dc/dcmitype/StillImage" />
        <dc:title>Gulp Community</dc:title>
        <cc:license
           rdf:resource="http://creativecommons.org/publicdomain/zero/1.0/" />
        <dc:date>2020-08-17</dc:date>
        <dc:creator>
          <cc:Agent>
            <dc:title>Nguyễn Đăng Tú</dc:title>
          </cc:Agent>
        </dc:creator>
        <dc:language>English</dc:language>
        <dc:subject>
          <rdf:Bag>
            <rdf:li>logo</rdf:li>
            <rdf:li>vector</rdf:li>
            <rdf:li>gulp</rdf:li>
          </rdf:Bag>
        </dc:subject>
        <dc:description>Logo of Gulp Community</dc:description>
      </cc:Work>
      <cc:License
         rdf:about="http://creativecommons.org/publicdomain/zero/1.0/">
        <cc:permits
           rdf:resource="http://creativecommons.org/ns#Reproduction" />
        <cc:permits
           rdf:resource="http://creativecommons.org/ns#Distribution" />
        <cc:permits
           rdf:resource="http://creativecommons.org/ns#DerivativeWorks" />
      </cc:License>
    </rdf:RDF>
  </metadata>
  <g
     inkscape:groupmode="layer"
     id="layer7"
     inkscape:label="Gulp Community"
     style="opacity:1">
    <g
       id="g1041"
       inkscape:label="Logo">
      <path
         inkscape:label="Body"
         inkscape:connector-curvature="0"
         id="Body"
         transform="scale(0.26458333)"
         d="m 157.63086,109.44727 c 0.25224,14.62404 2.06788,119.95793 2.99219,178.57421 0.60191,38.17101 3.13866,124.43573 3.13867,164.36133 v 10.77345 c 0.19105,2.16201 0.95401,2.98294 2.6482,3.35692 60.50433,12.29971 121.24803,12.55029 182.23977,0.23558 3.14789,-0.302 3.80811,-2.44281 3.79172,-4.5925 v -9.7735 c -2e-5,-13.5983 0.30649,-32.71152 0.71875,-53.32617 -1.33475,-0.0311 -2.68495,-0.49577 -3.83399,-1.47461 -0.0178,-0.0147 -0.0353,-0.0297 -0.0527,-0.0449 -7.15974,-6.43914 -8.98068,-17.18556 -8.17188,-27.74023 0.80603,-10.51845 4.2479,-21.02558 8.93946,-27.91211 0.88932,-1.41083 2.3067,-1.83315 3.42578,-1.88282 0.33661,-0.0149 0.67044,-0.0138 1.0039,0.0195 0.47044,-20.14366 0.9052,-39.05147 1.10938,-52 0.36254,-22.99054 0.91463,-55.55732 1.42773,-86.06836 l -1.06836,-0.0352 c -0.44008,-0.0168 -0.86792,-0.14952 -1.24023,-0.38477 -6.56439,-4.09831 -8.11911,-12.01845 -7.21094,-18.63281 0.45409,-3.30718 1.49985,-6.38363 3.04102,-8.83594 1.54116,-2.45231 3.70221,-4.50665 6.6289,-4.6875 0.0663,-0.005 0.13273,-0.008 0.19922,-0.008 0.0633,0.001 0.12615,0.003 0.18946,0.004 0.54186,-31.91606 0.85288,-49.8675 0.99023,-57.83789 -1.7663,0.81634 -3.67347,1.4287 -5.60938,1.88672 -5.89369,1.39437 -12.41875,1.56221 -17.53906,1.72851 -2.9274,0.0951 -5.86507,0.17097 -8.80664,0.24414 -1.07648,0.15735 -2.1068,0.39152 -3.03125,0.73828 -3.88569,2.07785 -8.11842,3.3408 -12.24219,3.13672 -3.02498,-0.14969 -6.09746,-0.97062 -9.08789,-2.24414 -2.36572,-0.58954 -5.88464,-1.2499 -6.57617,-1.23242 h -0.0293 -0.0293 c -9.09296,0.0113 -18.2506,-0.0732 -27.43946,-0.22852 -0.27889,0.0417 -0.57898,0.0711 -0.90039,0.0586 -1.06349,-0.0413 -3.39783,1.35885 -4.70117,2.49414 -0.0297,0.041 -0.0592,0.0846 -0.0898,0.125 -1.66555,2.83399 -3.61288,5.44362 -5.70117,7.73633 -3.79305,5.72627 -7.0705,12.19291 -9.10547,19.20312 -0.91977,5.54633 -2.19068,10.49114 -3.75782,14.38477 -1.58526,3.9387 -3.25446,7.00507 -6.32617,8.32812 -4.99788,2.1527 -11.45651,1.08863 -17.45117,-0.90234 -5.99466,-1.99098 -11.43581,-4.82546 -14.0918,-8.70313 -1.92258,-2.80692 -3.43936,-6.64879 -4.76171,-10.98437 -1.10179,-1.83952 -2.61713,-3.68011 -4.75,-4.83789 -3.4056,-0.79696 -6.41225,-1.99172 -8.77344,-3.83399 -6.37117,-4.97101 -11.97806,-14.29804 -14.96289,-24.25 -0.0482,-0.056 -0.0654,-0.0543 -0.11914,-0.125 0.26682,0.35129 -0.0944,-0.0775 -0.53125,-0.40039 -0.43691,-0.32291 -1.03928,-0.72308 -1.68946,-1.12109 -1.29286,-0.79142 -2.87535,-1.55939 -3.58007,-1.75781 -2.56594,-0.44799 -6.01001,-0.70129 -9.22266,-1.53125 z m 56.14453,122.70703 c 2.89505,0 5.69501,0.80229 8.40039,2.40625 2.70424,1.60279 5.23427,4.19836 7.58984,7.78711 0.54061,0.80197 0.8834,1.61321 1.0254,2.43359 0.14415,0.82152 0.21484,1.59543 0.21484,2.32031 0,1.71786 -0.40587,3.07459 -1.2168,4.06641 -0.81093,0.99297 -1.77367,1.48828 -2.88672,1.48828 -1.01991,0 -1.96531,-0.54353 -2.83984,-1.63086 -0.87567,-1.08848 -1.85512,-2.64405 -2.9375,-4.66797 -1.01875,-1.83291 -2.13894,-3.15893 -3.36328,-3.98047 -1.2255,-0.82039 -2.55413,-1.23242 -3.98633,-1.23242 -2.22722,0 -4.60348,0.93771 -7.13281,2.80859 -2.53047,1.86974 -5.03708,4.34274 -7.51758,7.41602 -2.48277,3.07442 -4.85984,6.58477 -7.13477,10.53711 -2.27492,3.95119 -4.29081,7.99649 -6.04101,12.13867 -1.75021,4.14449 -3.13915,8.23262 -4.17383,12.25977 -1.03465,4.02711 -1.55078,7.64286 -1.55078,10.84961 0,1.07008 0.0709,2.17077 0.21289,3.29492 0.14423,1.12759 0.41577,2.14743 0.81445,3.06445 0.39639,0.91706 0.93737,1.66951 1.6211,2.25977 0.68486,0.5937 1.55017,0.88672 2.59961,0.88672 1.17777,0 2.51479,-0.39917 4.01172,-1.20118 1.49466,-0.79964 3.04442,-1.84977 4.65039,-3.14648 1.6071,-1.29906 3.22269,-2.76905 4.8457,-4.41211 1.62413,-1.64075 3.13395,-3.30137 4.5332,-4.98242 1.39928,-1.67874 2.64141,-3.29262 3.72266,-4.83789 1.08238,-1.5464 1.8938,-2.89306 2.43555,-4.03906 l 4.43945,-13.45899 c 0.54062,-1.44977 1.24738,-2.48081 2.12305,-3.0918 0.87453,-0.61101 1.77389,-0.91601 2.69726,-0.91601 0.44409,0 0.88958,0.0766 1.33594,0.22851 0.44637,0.15303 0.84239,0.39151 1.19336,0.71485 0.34976,0.32563 0.62923,0.74313 0.83594,1.25976 0.20677,0.51433 0.31054,1.11778 0.31054,1.80469 0,1.83292 -0.16246,3.54921 -0.48047,5.1543 -0.31801,1.6051 -0.72077,3.1673 -1.21484,4.69531 -0.49291,1.52571 -1.0442,3.06494 -1.64844,4.61133 -0.60423,1.54642 -1.19239,3.16077 -1.76367,4.8418 -0.12719,0.19101 -0.3583,0.78939 -0.69336,1.80078 -0.33392,1.01368 -0.73865,2.28484 -1.2168,3.81054 -0.47702,1.52801 -0.99621,3.23261 -1.55273,5.12305 -0.55765,1.89045 -1.12847,3.81878 -1.7168,5.78516 -0.58946,1.96641 -1.15273,3.89667 -1.69336,5.78711 -0.54175,1.88932 -1.02883,3.59698 -1.45703,5.125 -0.4293,1.52571 -0.78487,2.80384 -1.07226,3.83593 -0.28623,1.03092 -0.46175,1.64093 -0.52539,1.83399 -0.159,0.60865 -0.41498,1.28596 -0.76368,2.02929 -0.34981,0.74443 -0.76404,1.45569 -1.24218,2.12305 -0.47703,0.66735 -1.00263,1.22098 -1.57618,1.65821 -0.57242,0.4385 -1.16026,0.66015 -1.76562,0.66015 -1.01764,0 -1.75685,-0.3455 -2.2168,-1.03125 -0.46226,-0.68807 -0.69336,-1.9456 -0.69336,-3.77734 v -0.80274 c 0,-0.2681 0.0147,-0.55667 0.0469,-0.85937 0.0305,-0.61213 0.27239,-1.75839 0.71875,-3.43945 0.44521,-1.67876 0.97639,-3.57781 1.59765,-5.69727 0.62012,-2.11941 1.29034,-4.3135 2.00586,-6.58594 0.71439,-2.27131 1.36003,-4.30271 1.9336,-6.09765 -1.68888,1.91002 -3.51743,3.80876 -5.49024,5.69921 -1.97395,1.88931 -3.99541,3.58648 -6.0625,5.09375 -2.06935,1.50846 -4.15307,2.74029 -6.25195,3.69532 -2.10003,0.95383 -4.12149,1.43359 -6.0625,1.43359 -2.22722,0 -4.14372,-0.49727 -5.75195,-1.49023 -0.28962,-0.18067 -0.56332,-0.38198 -0.83594,-0.58204 -5.89018,-3.133 -8.78333,-13.76438 -3.14649,-33.44531 0.54177,-1.87203 1.14549,-3.74263 1.81446,-5.60547 1.36858,-3.81772 2.94932,-7.54902 4.74609,-11.19531 1.79791,-3.64512 3.75518,-7.09202 5.8711,-10.33789 2.11478,-3.2447 4.36768,-6.2325 6.7539,-8.96289 2.38738,-2.72924 4.83701,-5.07739 7.35156,-7.04492 2.51344,-1.96525 5.04824,-3.50249 7.60938,-4.60938 2.56228,-1.10689 5.09985,-1.66015 7.61328,-1.66015 z m 83.38086,6.87109 c 0.9847,0 1.88324,0.32565 2.69531,0.97461 0.81209,0.65008 1.22071,1.69948 1.22071,3.15039 0,0.68692 -0.13786,1.41293 -0.40821,2.17578 -0.27029,0.76401 -0.61283,1.58498 -1.02734,2.46289 -0.79389,1.79611 -1.74157,3.99016 -2.83984,6.58594 -1.09829,2.59692 -2.27513,5.42286 -3.53126,8.47656 -1.25729,3.05488 -2.54546,6.23291 -3.86523,9.53516 -1.31977,3.30339 -2.60989,6.51959 -3.86719,9.65039 -1.255,3.13195 -2.43297,6.09876 -3.53125,8.90625 -1.09714,2.80633 -2.04255,5.24004 -2.83984,7.30078 -0.3498,0.87791 -0.69264,1.90198 -1.02539,3.06641 -0.33503,1.16325 -0.5,2.20407 -0.5,3.12109 0,0.57074 0.0944,1.02907 0.28516,1.37305 0.1908,0.34415 0.55704,0.51367 1.09765,0.51367 0.66781,0 1.50494,-0.23814 2.50781,-0.7168 1.00173,-0.47636 2.08031,-1.10624 3.24219,-1.88867 1.16303,-0.78125 2.37194,-1.67884 3.62695,-2.69141 1.25842,-1.01137 2.50585,-2.06191 3.7461,-3.15039 1.24253,-1.08962 2.42769,-2.17714 3.55664,-3.26562 1.12895,-1.08732 2.14164,-2.08883 3.0332,-3.00586 0.20898,-0.21983 0.45949,-0.37401 0.73438,-0.49023 0.53721,-1.62581 1.02822,-3.21942 1.46093,-4.77735 0.25444,-0.68804 0.60365,-1.66081 1.04883,-2.92187 0.44409,-1.26107 0.95492,-2.49878 1.52735,-3.72071 0.57242,-1.22079 1.21838,-2.2814 1.93164,-3.17773 0.71666,-0.89629 1.48957,-1.34961 2.3164,-1.34961 1.27319,0 2.19516,0.2984 2.76758,0.88867 0.57241,0.59372 0.85938,1.45947 0.85938,2.60547 0,0.22896 -0.032,0.59199 -0.0957,1.08789 -0.0647,0.49707 -0.14285,1.02468 -0.23828,1.57813 -0.0954,0.55229 -0.19924,1.0791 -0.31054,1.57617 -0.11248,0.49591 -0.21516,0.85502 -0.31055,1.08398 1.1755,-1.29904 2.44976,-2.583 3.81836,-3.86133 1.36858,-1.27947 2.78405,-2.43815 4.24804,-3.46679 1.46513,-1.03209 2.95956,-1.87105 4.48829,-2.52344 1.52534,-0.64662 3.05364,-0.9707 4.58007,-0.9707 1.04947,0 2.09145,0.15288 3.125,0.45898 1.03355,0.3049 1.95973,0.75233 2.76953,1.34375 0.81207,0.59372 1.47277,1.33886 1.98047,2.23633 0.50873,0.89634 0.76368,1.93516 0.76368,3.11914 0,1.56713 -0.38968,3.23829 -1.16993,5.01367 -0.77911,1.77539 -1.75777,3.55696 -2.93554,5.34961 -1.17782,1.7961 -2.45011,3.54274 -3.81641,5.24219 -1.3686,1.69945 -2.64811,3.24331 -3.8418,4.63672 -1.19368,1.39566 -2.19769,2.5774 -3.00976,3.55078 -0.80864,0.97573 -1.23344,1.63649 -1.26367,1.98047 0,0.45796 0.14346,0.82971 0.42968,1.11718 0.28623,0.28529 0.76381,0.42969 1.43164,0.42969 0.54063,0 1.33843,-0.30701 2.38672,-0.91797 1.04946,-0.611 2.52188,-1.67119 4.41407,-3.17968 1.89218,-1.50842 4.29611,-3.53093 7.20703,-6.07032 1.99668,-1.73972 4.33686,-3.81588 6.9707,-6.17578 3.59985,-2.66812 5.38078,-0.0162 2.23633,6.93164 l -3.48438,3.79102 c -0.7607,0.70717 -1.50239,1.4002 -2.21093,2.07031 -2.6736,2.51866 -5.19608,4.68275 -7.56641,6.49609 -2.3692,1.81338 -4.68629,3.21835 -6.94531,4.20899 -2.26016,0.99415 -4.67686,1.49023 -7.25391,1.49023 -2.41803,0 -4.28962,-0.53268 -5.60937,-1.60156 -1.31976,-1.0678 -1.98047,-2.53811 -1.98047,-4.41016 v -0.42968 c 0,-0.13328 0.0159,-0.29539 0.0488,-0.48633 0.12607,-1.14369 0.62183,-2.46541 1.48046,-3.95313 0.85864,-1.49005 1.89117,-3.03584 3.09961,-4.63867 1.20959,-1.60391 2.4986,-3.22526 3.86719,-4.86719 1.36859,-1.64074 2.63304,-3.19633 3.79492,-4.66796 1.16073,-1.46703 2.12348,-2.81597 2.88672,-4.03907 0.76551,-1.22195 1.14649,-2.21256 1.14649,-2.97656 0,-0.45794 -0.15984,-0.81867 -0.47657,-1.08789 -0.31914,-0.26466 -0.84589,-0.40234 -1.57617,-0.40234 -1.27321,0 -2.58512,0.33457 -3.93555,1.00195 -1.35381,0.66735 -2.69197,1.56808 -4.01171,2.69336 -1.31976,1.12646 -2.60991,2.41742 -3.86719,3.86719 -1.25502,1.45091 -2.43102,2.95781 -3.5293,4.52148 -1.09827,1.56713 -2.10034,3.14413 -3.00781,4.72852 -0.90747,1.58436 -1.67925,3.04224 -2.31641,4.37695 -0.19081,0.42113 -0.45958,1.01366 -0.81054,1.77539 -0.34981,0.76399 -0.73109,1.62622 -1.14454,2.58008 -0.41454,0.95502 -0.85334,1.93623 -1.31445,2.94531 -0.46112,1.0137 -0.88203,1.96892 -1.26367,2.86523 -0.38162,0.89751 -0.72244,1.69863 -1.02344,2.40626 -0.30444,0.70532 -0.5193,1.19458 -0.64648,1.46289 -0.15902,0.34284 -0.42336,0.98832 -0.78906,1.94335 -0.36574,0.95498 -0.78585,2.07131 -1.26172,3.34961 -0.47703,1.27832 -0.98,2.62694 -1.50586,4.04102 -0.52246,1.41065 -1.01546,2.7479 -1.47657,4.00781 -0.46225,1.25876 -0.87005,2.36529 -1.21875,3.32032 -0.34978,0.95268 -0.57452,1.60524 -0.66992,1.94921 -0.31689,0.993 -0.69289,1.92528 -1.12109,2.80664 -0.43046,0.87676 -0.92086,1.6487 -1.47852,2.31836 -0.55651,0.66727 -1.19348,1.20301 -1.91015,1.60352 -0.71667,0.40267 -1.51696,0.60156 -2.40625,0.60156 -1.14712,0 -2.09415,-0.27961 -2.84375,-0.83203 -0.74625,-0.55343 -1.1211,-1.61411 -1.1211,-3.17773 0,-0.76405 0.0964,-1.54683 0.28711,-2.34766 0.19081,-0.80195 0.42858,-1.59375 0.71485,-2.375 0.28623,-0.78474 0.58458,-1.5485 0.88672,-2.29297 0.30094,-0.74559 0.57872,-1.46036 0.83203,-2.14844 1.71953,-3.81772 3.46912,-7.64203 5.25,-11.48046 1.78085,-3.83613 3.49275,-7.63516 5.13281,-11.39649 0.34069,-0.78474 0.65162,-1.55386 0.98437,-2.33398 -0.1,0.0987 -0.19726,0.20421 -0.29492,0.30078 -2.06935,2.02505 -4.12736,3.8071 -6.17969,5.35351 -2.05344,1.54642 -4.08917,2.77634 -6.10742,3.69336 -2.02165,0.91474 -3.98808,1.375 -5.89844,1.375 -1.30384,0 -2.39304,-0.20882 -3.26757,-0.6289 -0.87567,-0.42114 -1.5718,-0.99503 -2.09766,-1.71875 -0.52586,-0.7249 -0.90239,-1.58514 -1.125,-2.57813 -0.075,-0.33943 -0.12124,-0.69371 -0.16992,-1.04687 -0.5588,0.4407 -1.12352,0.87183 -1.69141,1.27929 -1.9728,1.41064 -3.91304,2.54595 -5.82226,3.4043 -1.90806,0.85941 -3.62508,1.28906 -5.15039,1.28906 -1.52872,0 -2.77222,-0.51401 -3.72852,-1.54492 -0.95403,-1.02983 -1.42773,-2.78688 -1.42773,-5.26758 0,-1.75812 0.25402,-3.80119 0.76172,-6.1289 -0.82683,1.48892 -1.8613,2.99576 -3.10157,4.52148 -1.2425,1.52802 -2.65797,2.92254 -4.24804,4.18359 -1.59346,1.25875 -3.37403,2.28013 -5.34571,3.0625 -1.97395,0.78223 -4.12186,1.17383 -6.44336,1.17383 -1.05056,0 -2.06015,-0.13137 -3.03125,-0.39844 -0.97105,-0.2681 -1.82131,-0.72802 -2.55273,-1.37695 -0.73256,-0.64784 -1.32122,-1.5162 -1.76758,-2.60351 -0.44515,-1.08733 -0.66602,-2.45691 -0.66602,-4.09766 0,-0.0378 0.0622,-0.61851 0.18946,-1.74609 0.12718,-1.12646 0.53389,-2.90187 1.21875,-5.32618 0.68372,-2.42317 1.74196,-5.56503 3.17187,-9.42187 1.43334,-3.85569 3.45367,-8.53285 6.0625,-14.0293 0.66783,-1.45207 1.44106,-2.49366 2.31446,-3.12304 0.8768,-0.63054 1.82025,-0.94336 2.83789,-0.94336 0.44635,0 0.90773,0.0669 1.38476,0.19922 0.47929,0.13465 0.92338,0.34433 1.33789,0.63085 0.41226,0.2865 0.74642,0.65145 1.00196,1.08985 0.25217,0.43838 0.38281,0.94067 0.38281,1.51367 0,0.38201 -0.0491,0.74732 -0.14453,1.08789 -0.16015,0.6524 -0.501,1.49948 -1.02344,2.54883 -0.52586,1.05165 -1.13909,2.25396 -1.83984,3.60937 -0.69848,1.35542 -1.43963,2.81764 -2.21875,4.38477 -0.78026,1.56369 -1.50404,3.18419 -2.17188,4.86523 -0.66781,1.68104 -1.23976,3.38759 -1.7168,5.125 -0.47699,1.73743 -0.75006,3.42957 -0.8125,5.07032 0,0.68692 0.15746,1.31372 0.47657,1.88672 0.31799,0.57315 0.84475,0.85937 1.57617,0.85937 2.06708,0 4.03942,-0.68791 5.91797,-2.06055 1.87627,-1.37499 3.60885,-3.08462 5.20117,-5.12695 1.59121,-2.04231 3.03123,-4.23754 4.32031,-6.58594 1.28909,-2.34838 2.36207,-4.49342 3.2207,-6.4414 0.60536,-1.29673 1.1385,-2.6939 1.59961,-4.18164 0.46113,-1.49005 0.96331,-2.86199 1.50391,-4.12305 0.54176,-1.26107 1.16057,-2.3085 1.86133,-3.14844 0.69852,-0.83876 1.57474,-1.26172 2.62305,-1.26172 1.14711,0 2.05256,0.43849 2.72265,1.31641 0.66777,0.87906 1,1.93155 1,3.15234 0,0.68692 -0.21214,1.63357 -0.64258,2.83594 -0.43045,1.20238 -0.97307,2.57663 -1.625,4.12305 -0.65305,1.54641 -1.35899,3.19649 -2.12109,4.95117 -0.76322,1.75814 -1.47144,3.54293 -2.12109,5.35742 -0.65532,1.81337 -1.19653,3.58876 -1.62696,5.32617 -0.43047,1.73629 -0.64257,3.35018 -0.64257,4.83789 -10e-6,1.37499 0.69842,2.0625 2.09765,2.0625 0.98699,0 2.21178,-0.34515 3.67578,-1.0332 1.464,-0.68807 2.9995,-1.6511 4.60547,-2.89258 0.40093,-0.3095 0.80607,-0.63104 1.20703,-0.9707 0.44863,-1.87432 0.97377,-3.60646 1.58594,-5.18164 1.11305,-2.98008 2.24268,-5.93909 3.38867,-8.87891 1.14484,-2.9398 2.19409,-5.63033 3.15039,-8.07422 l 14.46094,-36.9414 c 0.57242,-1.4889 1.34564,-2.53748 2.31445,-3.14844 0.9722,-0.60985 1.94859,-0.91797 2.93555,-0.91797 z"
         style="display:inline;opacity:1;fill:#da4648;fill-opacity:1;stroke:none;stroke-width:5.00031;stroke-linecap:butt;stroke-linejoin:miter;stroke-miterlimit:4;stroke-dasharray:none;stroke-opacity:1"
         sodipodi:nodetypes="cssccccccccscccsccccccccccccccccccccccccccccccccccccccccccscscccscccccscccsccccccccscccscccccccccccccccscssccccccccscccccccccccscscccccccccscscccccccccccscscccccccscccscccccccscccccccccscssccccccscscccccccccccccccccccccscsccccccccccsccccccscsccccscccscccccscccsccccccccscccccccscsccccccsccccccccss" />
      <path
         style="color:#000000;font-style:normal;font-variant:normal;font-weight:normal;font-stretch:normal;font-size:medium;line-height:normal;font-family:sans-serif;font-variant-ligatures:normal;font-variant-position:normal;font-variant-caps:normal;font-variant-numeric:normal;font-variant-alternates:normal;font-feature-settings:normal;text-indent:0;text-align:start;text-decoration:none;text-decoration-line:none;text-decoration-style:solid;text-decoration-color:#000000;letter-spacing:normal;word-spacing:normal;text-transform:none;writing-mode:lr-tb;direction:ltr;text-orientation:mixed;dominant-baseline:auto;baseline-shift:baseline;text-anchor:start;white-space:normal;shape-padding:0;clip-rule:nonzero;display:inline;overflow:visible;visibility:visible;opacity:1;isolation:auto;mix-blend-mode:normal;color-interpolation:sRGB;color-interpolation-filters:linearRGB;solid-color:#000000;solid-opacity:1;vector-effect:none;fill:#da4648;fill-opacity:1;fill-rule:nonzero;stroke:none;stroke-width:1.32292;stroke-linecap:round;stroke-linejoin:round;stroke-miterlimit:4;stroke-dasharray:none;stroke-dashoffset:0;stroke-opacity:1;paint-order:markers fill stroke;color-rendering:auto;image-rendering:auto;shape-rendering:auto;text-rendering:auto;enable-background:accumulate"
         d="m 94.574219,46.138672 c 1.09732,-0.07483 3.724142,0.546919 5.553651,1.015755 1.82297,0.452167 3.2269,1.25329 4.13867,2.826172 1.52976,3.051177 4.78176,9.595934 6.86627,16.441276 1.04413,3.428811 1.98315,6.822509 2.64453,9.673828 0.66139,2.851319 1.03397,5.200613 0.98633,6.341797 -1e-5,0.002 -1e-5,0.0039 0,0.0059 -0.0218,0.640569 -0.71103,1.913636 -2,3.419922 -1.28896,1.506287 -3.11837,3.283881 -5.22265,5.232422 -4.19851,3.887772 -9.491732,8.458665 -13.896489,13.103516 -0.02721,0.0249 -0.245444,0.0702 -0.353515,-0.0117 -1.408867,-1.27552 -1.918775,-3.68484 -1.722657,-6.24414 0.191167,-2.494677 1.055928,-5.042603 2.072266,-6.597656 0.667211,0.657972 1.192774,1.209665 1.865234,1.462891 0.736412,0.277307 1.557401,0.06771 2.390625,-0.472656 4.954996,-3.213421 9.423146,-7.30986 10.794926,-12.222657 0.18368,-0.657847 0.14152,-1.459221 0.01,-2.488281 -0.13176,-1.02906 -0.37828,-2.261604 -0.71094,-3.628906 -0.66531,-2.734604 -1.67721,-6.006011 -2.81835,-9.167969 -1.14115,-3.161958 -2.40775,-6.209387 -3.59961,-8.501953 -0.59594,-1.146283 -1.17035,-2.103401 -1.724614,-2.810547 C 99.293632,52.80854 98.791798,52.250839 97.996334,52.22467 L 94.480469,52.109375 C 93.405086,51.365366 93.061614,49.946267 93.25,48.574219 c 0.09706,-0.706904 0.332997,-1.368464 0.613281,-1.814453 0.278657,-0.443401 0.566223,-0.610401 0.710938,-0.621094 z"
         id="Handle"
         inkscape:connector-curvature="0"
         inkscape:label="Handle"
         sodipodi:nodetypes="ccccccccsccsccccccccsccssc" />
      <path
         style="color:#000000;font-style:normal;font-variant:normal;font-weight:normal;font-stretch:normal;font-size:medium;line-height:normal;font-family:sans-serif;font-variant-ligatures:normal;font-variant-position:normal;font-variant-caps:normal;font-variant-numeric:normal;font-variant-alternates:normal;font-feature-settings:normal;text-indent:0;text-align:start;text-decoration:none;text-decoration-line:none;text-decoration-style:solid;text-decoration-color:#000000;letter-spacing:normal;word-spacing:normal;text-transform:none;writing-mode:lr-tb;direction:ltr;text-orientation:mixed;dominant-baseline:auto;baseline-shift:baseline;text-anchor:start;white-space:normal;shape-padding:0;clip-rule:nonzero;display:inline;overflow:visible;visibility:visible;opacity:1;isolation:auto;mix-blend-mode:normal;color-interpolation:sRGB;color-interpolation-filters:linearRGB;solid-color:#000000;solid-opacity:1;vector-effect:none;fill:#da4648;fill-opacity:1;fill-rule:nonzero;stroke:none;stroke-width:1.32292;stroke-linecap:butt;stroke-linejoin:miter;stroke-miterlimit:4;stroke-dasharray:none;stroke-dashoffset:0;stroke-opacity:1;color-rendering:auto;image-rendering:auto;shape-rendering:auto;text-rendering:auto;enable-background:accumulate"
         d="m 66.816406,11.142578 c 0.151595,0.0022 0.297237,0.0065 0.4375,0.01367 2.398961,0.124739 5.382656,0.743786 7.69336,1.90625 l 0.216796,0.107422 0.234376,-0.05664 c 3.434169,-0.825161 7.405976,-0.794007 10.412109,0.726563 1.576571,0.797467 3.691932,2.095887 5.302734,3.52539 0.805401,0.714752 1.483275,1.46283 1.910157,2.167969 0.426881,0.705139 0.594173,1.337541 0.5,1.886719 l -0.05859,0.341797 0.246094,0.242187 c 0.792576,0.780285 1.456838,1.659743 1.832031,2.515625 0.375193,0.855882 0.46671,1.6568 0.197265,2.40625 -0.333681,0.928105 -1.301274,1.472039 -2.666015,1.794922 -1.364742,0.322884 -3.020905,0.379725 -4.378907,0.423828 -0.788838,0.02562 -1.582614,0.04668 -2.378906,0.06641 h -0.03906 l -0.03711,0.0059 c -0.372186,0.05306 -0.755568,0.13866 -1.130859,0.283203 l -0.04102,0.01563 -0.03711,0.01953 c -0.880595,0.479383 -1.816323,0.739934 -2.599609,0.701172 -0.623254,-0.03084 -1.313901,-0.210555 -2.009766,-0.513672 l -0.05078,-0.02148 -0.05273,-0.01367 C 79.665888,29.522907 78.84699,29.297981 78.18946,29.314506 l 0.01563,-0.002 c -2.415559,0.003 -4.848098,-0.01698 -7.291016,-0.05859 l -0.08594,-0.002 -0.08398,0.02148 c 5.75e-4,-1.43e-4 0.01842,-0.0018 0.01563,-0.002 -1.023156,-0.0397 -1.770947,0.618308 -2.208985,1.011719 l -0.08789,0.07813 -0.05469,0.103516 c 0.0023,-0.0043 -0.0078,0.01453 -0.03125,0.04297 -0.02916,0.03525 -0.04196,0.05146 -0.01172,0.01563 l -0.03516,0.04297 -0.0293,0.04883 c -0.403627,0.686788 -0.880805,1.324136 -1.386719,1.873047 l -0.03516,0.03711 -0.0293,0.04492 c -1.07659,1.619899 -2.018846,3.467511 -2.605468,5.501954 l -0.0098,0.03906 -0.0078,0.03711 c -0.23232,1.417171 -0.558229,2.667821 -0.923828,3.576171 -0.365598,0.908351 -0.82884,1.421319 -0.970703,1.482422 -0.719565,0.309932 -2.262579,0.192665 -3.677734,-0.277343 -1.415155,-0.470009 -2.724962,-1.313532 -3.054688,-1.794922 -0.402132,-0.587105 -0.810787,-1.543294 -1.148437,-2.6875 l -0.02344,-0.08008 -0.04297,-0.07227 C 54.00939,37.668161 53.437097,36.942851 52.539038,36.484293 l -0.07422,-0.03906 -0.08203,-0.01758 c -0.816906,-0.182392 -1.473417,-0.460926 -1.896484,-0.791015 -1.37248,-1.070859 -2.885392,-3.465956 -3.585937,-5.925781 l -0.04687,-0.169922 -0.125,-0.121094 c -0.02269,-0.02225 -0.01512,-0.01782 0.0059,0.0098 -0.150533,-0.198189 -0.251017,-0.254408 -0.40625,-0.369141 -0.155233,-0.114733 -0.341218,-0.237827 -0.542969,-0.361328 -0.403501,-0.247003 -0.844121,-0.48988 -1.291015,-0.613281 l -0.0293,-0.0078 -0.0293,-0.0059 C 43.628962,27.926468 42.701046,27.8534 42.001969,27.667894 41.652431,27.575144 41.36822,27.453002 41.197282,27.32805 c -0.170939,-0.124952 -0.235433,-0.219291 -0.267578,-0.392578 -0.187895,-1.012898 0.09612,-1.909335 0.75,-2.806641 0.653883,-0.897305 1.688217,-1.752371 2.892578,-2.507812 l 0.253906,-0.158203 0.04687,-0.296875 c 0.05237,-0.321943 0.396248,-0.876145 0.892578,-1.402344 0.49633,-0.526199 1.112186,-1.036922 1.603516,-1.431641 1.224502,-0.983725 2.894492,-2.180557 4.341797,-2.585937 l 0.30664,-0.08594 0.123047,-0.292968 c 0.444868,-1.047545 1.146502,-1.966945 1.964844,-2.515626 1.957053,-1.31216 4.783353,-1.308882 7.527343,-0.646484 l 0.28125,0.06641 0.240235,-0.158203 c 1.024361,-0.678368 3.121442,-0.992925 4.662109,-0.970703 z"
         id="Foam"
         inkscape:connector-curvature="0"
         inkscape:label="Foam" />
    </g>
  </g>
</svg>
